<svg version="1.1" id="Layer_1" xmlns="http://www.w3.org/2000/svg" x="0" y="0" viewBox="0 0 63.95 63.95" xml:space="preserve">
  <style>
    .st0{fill:#fff}
  </style>
  <path class="st0" d="M0-57.76C0-40.1 14.32-25.78 31.98-25.78s31.97-14.31 31.97-31.96v-.02c-.01-17.65-14.32-31.96-31.97-31.96h-.01C14.31-89.73 0-75.42 0-57.76zm21.35-3.06v-5.48h4.53v-4.11c0-3.73 1.75-9.52 9.56-9.52h7.04v7.81h-5.1c-.84 0-2.02.41-2.02 2.17v3.65h7.23l-.53 5.52-.31 3.58h-6.74v22.74h-9.1V-57.2h-4.57v-3.62zM47.32 20.37c-.31-.85-.82-1.63-1.47-2.26a6.059 6.059 0 00-2.26-1.47c-.69-.27-1.73-.59-3.65-.68-2.08-.1-2.7-.12-7.96-.12s-5.88.02-7.95.12c-1.92.09-2.96.41-3.66.68-.86.32-1.63.82-2.26 1.47a6.14 6.14 0 00-1.47 2.26c-.27.69-.59 1.74-.68 3.66-.09 2.08-.11 2.7-.11 7.95 0 5.26.02 5.88.11 7.96.09 1.92.41 2.96.68 3.66.31.85.82 1.63 1.47 2.26a6.14 6.14 0 002.26 1.47c.69.27 1.74.59 3.66.68 2.07.1 2.7.11 7.95.11s5.88-.02 7.96-.11c1.92-.09 2.96-.41 3.65-.68a6.53 6.53 0 003.74-3.74c.27-.69.59-1.74.68-3.66.09-2.08.12-2.7.12-7.96s-.02-5.88-.12-7.95c-.1-1.92-.42-2.96-.69-3.65zM31.98 42.08c-5.58 0-10.11-4.53-10.11-10.11s4.53-10.11 10.11-10.11 10.11 4.53 10.11 10.11-4.53 10.11-10.11 10.11zm10.5-18.25c-1.3 0-2.36-1.06-2.36-2.36 0-1.3 1.06-2.36 2.36-2.36 1.3 0 2.36 1.06 2.36 2.36.01 1.3-1.05 2.36-2.36 2.36z"/>
  <circle class="st0" cx="31.98" cy="31.98" r="6.56"/>
  <path class="st0" d="M31.98 0h-.02C14.31 0 0 14.32 0 31.97c0 17.66 14.32 31.98 31.98 31.98 17.65 0 31.97-14.31 31.97-31.96v-.02C63.95 14.31 49.63 0 31.98 0zm19.56 40.09c-.1 2.1-.43 3.53-.92 4.78a10.084 10.084 0 01-5.76 5.76c-1.25.49-2.68.82-4.78.92-2.1.1-2.77.12-8.12.12s-6.02-.02-8.11-.12c-2.1-.1-3.53-.43-4.78-.92a9.71 9.71 0 01-3.49-2.27 9.67 9.67 0 01-2.27-3.49c-.49-1.25-.82-2.68-.91-4.78-.1-2.1-.12-2.77-.12-8.12s.02-6.02.12-8.12c.09-2.1.43-3.53.91-4.78a9.71 9.71 0 012.27-3.49c.98-1 2.17-1.78 3.49-2.27 1.25-.49 2.68-.82 4.78-.92 2.1-.1 2.77-.12 8.12-.12s6.02.02 8.12.12c2.09.1 3.53.43 4.78.91a9.71 9.71 0 013.49 2.27c1 .98 1.77 2.17 2.27 3.49.49 1.25.82 2.68.92 4.78.09 2.1.12 2.77.12 8.12s-.03 6.03-.13 8.13z"/>
  <g>
    <path class="st0" d="M31.98 89.73h-.01C14.31 89.74 0 104.05 0 121.71s14.32 31.98 31.98 31.98 31.97-14.31 31.97-31.96v-.02c-.01-17.66-14.32-31.97-31.97-31.98zm18.84 44.5c0 .65-.52 1.18-1.17 1.18H14.31c-.65 0-1.17-.53-1.17-1.18v-18.32l14.97 9.45a7.26 7.26 0 007.74 0l14.97-9.45v18.32zm0-22.25l-14.93 9.55a7.258 7.258 0 01-7.81 0l-14.93-9.55v-2.79c0-.65.52-1.18 1.17-1.18h35.34c.65 0 1.17.53 1.17 1.18v2.79z"/>
  </g>
</svg>