<?xml version="1.0" encoding="utf-8"?>
<!-- Generator: Adobe Illustrator 23.0.2, SVG Export Plug-In . SVG Version: 6.00 Build 0)  -->
<svg version="1.1" id="Layer_1" xmlns="http://www.w3.org/2000/svg" xmlns:xlink="http://www.w3.org/1999/xlink" x="0px" y="0px"
	 viewBox="0 0 88.53 50.02" style="enable-background:new 0 0 88.53 50.02;" xml:space="preserve">
<style type="text/css">
	.st0{fill:#FFFFFF;}
</style>
<g>
	<g>
		<path class="st0" d="M48.27,36.15c0,4.18-3.4,7.57-7.57,7.57s-7.57-3.4-7.57-7.57c0-4.18,3.4-7.57,7.57-7.57
			S48.27,31.97,48.27,36.15z M35.43,36.15c0,2.9,2.36,5.27,5.27,5.27c2.9,0,5.27-2.36,5.27-5.27s-2.36-5.27-5.27-5.27
			C37.79,30.88,35.43,33.25,35.43,36.15z"/>
	</g>
	<g>
		<path class="st0" d="M76.18,43.72c-1.94,0-3.88-0.74-5.35-2.21c-1.43-1.43-2.22-3.33-2.22-5.35c0-2.02,0.79-3.92,2.22-5.35
			c2.95-2.95,7.76-2.95,10.71,0c0.45,0.45,0.45,1.18,0,1.63c-0.45,0.45-1.18,0.45-1.63,0c-2.05-2.05-5.39-2.05-7.45,0
			c-0.99,0.99-1.54,2.32-1.54,3.72c0,1.41,0.55,2.73,1.54,3.72c2.05,2.05,5.39,2.05,7.45,0c0.45-0.45,1.18-0.45,1.63,0
			c0.45,0.45,0.45,1.18,0,1.63C80.06,42.98,78.12,43.72,76.18,43.72z"/>
	</g>
	<g>
		<path class="st0" d="M86.71,43.72c-0.64,0-1.15-0.52-1.15-1.15V29.73c0-0.64,0.52-1.15,1.15-1.15c0.64,0,1.15,0.52,1.15,1.15
			v12.84C87.87,43.21,87.35,43.72,86.71,43.72z"/>
		<path class="st0" d="M87.87,29.73v12.84c0,0.64-0.52,1.15-1.15,1.15c-0.64,0-1.15-0.52-1.15-1.15"/>
	</g>
	<g>
		<g>
			<circle class="st0" cx="86.71" cy="24.61" r="1.82"/>
		</g>
	</g>
	<g>
		<path class="st0" d="M40.7,50.02c-6.18,0-11.31-1.93-16.74-3.98c-4.16-1.57-8.43-3.17-13.37-3.95l-2.24,3.89
			c-0.79,1.39-2.28,2.26-3.88,2.26C2,48.24,0,46.24,0,43.78c0-2.46,2-4.46,4.46-4.46c1.71,0,3.34,0.1,4.89,0.29
			c-0.5,0.87,13.65-24.38,18.19-32.11C31.33,1.07,35.74,0,38.62,0c6.11,0,11.09,4.97,11.09,11.09s-4.97,11.09-11.09,11.09
			c-2.98,0-5.83-1.2-7.91-3.32c-0.38-0.34-0.72-0.77-0.99-1.28c0,0,0,0,0,0c-0.34-0.64-0.52-1.36-0.52-2.09c0-2.46,2-4.46,4.46-4.46
			s4.46,2,4.46,4.46c0,1.65-1.1,3.19-2.34,3.92c0.9,0.31,1.86,0.47,2.83,0.47c4.84,0,8.78-3.94,8.78-8.78s-3.94-8.78-8.78-8.78
			c-3.31,0-6.49,1.95-9.08,6.35c-4.49,7.64-16.82,29.73-17.73,31.3c4.78,0.85,8.91,2.41,12.96,3.93c5.23,1.97,10.17,3.83,15.93,3.83
			c6.38,0,11.57-5.19,11.57-11.57c0-2.09-0.53-4.1-1.54-5.83c-0.29-0.5-0.17-1.13,0.28-1.49c0.45-0.36,1.09-0.33,1.51,0.07
			l9.94,9.48c-0.12-0.74-0.18-1.48-0.18-2.23c0-2.45,0.65-4.86,1.88-6.97c0.32-0.55,1.03-0.74,1.58-0.42
			c0.55,0.32,0.74,1.03,0.42,1.58c-1.02,1.76-1.56,3.77-1.56,5.81c0,2.04,0.55,4.06,1.6,5.84c0.29,0.5,0.17,1.13-0.28,1.49
			c-0.45,0.36-1.1,0.33-1.51-0.07l-10-9.53c0.12,0.74,0.18,1.5,0.18,2.27C54.57,43.8,48.35,50.02,40.7,50.02z M4.46,41.62
			c-1.19,0-2.16,0.97-2.16,2.16c0,1.19,0.97,2.16,2.16,2.16c0.77,0,1.49-0.42,1.87-1.1l1.76-3.05C6.93,41.68,5.72,41.62,4.46,41.62z
			 M32.3,17.19c0.61,0.52,1.38,0.58,1.84,0.4c0.07-0.03,0.13-0.04,0.2-0.06c0.56-0.11,1.48-1.11,1.48-2.05
			c0-1.19-0.97-2.16-2.16-2.16s-2.16,0.97-2.16,2.16c0,0.35,0.09,0.7,0.25,1.01c0,0,0.01,0.01,0.01,0.01c0,0,0,0,0,0
			c0.07,0.13,0.16,0.26,0.26,0.38C32.11,16.98,32.21,17.09,32.3,17.19z"/>
	</g>
</g>
</svg>
